<svg height="383.13262pt" viewBox="0 0 383.13262 383.13262" width="383.13262pt" xmlns="http://www.w3.org/2000/svg"><path d="m282.847656 339.414062 56.566406-56.566406c3.128907-3.125 3.128907-8.191406.007813-11.316406-3.125-3.125-8.191406-3.128906-11.316406-.003906l-56.570313 56.570312c-3.125 3.121094-3.125 8.1875-.003906 11.3125 3.125 3.128906 8.191406 3.128906 11.316406.003906zm0 0"/><path d="m226.273438 362.039062c28.117187 28.125 73.710937 28.125 101.832031 0l33.933593-33.933593c28.125-28.121094 28.125-73.714844 0-101.832031l-181.015624-180.976563c-9.371094-9.375-24.570313-9.375-33.945313 0l-101.820313 101.78125c-9.375 9.375-9.375 24.574219 0 33.945313zm33.949218-45.253906 56.570313-56.570312c6.046875-6.144532 14.921875-8.574219 23.257812-6.363282 8.332031 2.210938 14.839844 8.71875 17.046875 17.050782 2.207032 8.335937-.222656 17.210937-6.371094 23.257812l-56.566406 56.566406c-6.046875 6.144532-14.925781 8.574219-23.257812 6.367188-8.332032-2.210938-14.839844-8.71875-17.046875-17.054688-2.210938-8.332031.222656-17.210937 6.367187-23.253906zm0 0"/><path d="m56.574219 0-56.574219 56.566406 56.574219 56.578125 56.570312-56.578125zm-22.628907 67.878906-11.3125-11.3125 11.3125-11.269531 11.3125 11.3125zm11.3125-33.933594 11.316407-11.320312 11.3125 11.3125-11.3125 11.359375zm0 0"/></svg>